<?xml version="1.0" encoding="UTF-8" standalone="no"?><!DOCTYPE svg PUBLIC "-//W3C//DTD SVG 1.1//EN" "http://www.w3.org/Graphics/SVG/1.1/DTD/svg11.dtd"><svg width="100%" height="100%" viewBox="0 0 2084 2084" version="1.1" xmlns="http://www.w3.org/2000/svg" xmlns:xlink="http://www.w3.org/1999/xlink" xml:space="preserve" xmlns:serif="http://www.serif.com/" style="fill-rule:evenodd;clip-rule:evenodd;stroke-linejoin:round;stroke-miterlimit:2;"><path d="M2083.33,374.768c0,-206.84 -167.928,-374.768 -374.768,-374.768l-1332.51,-0c-206.84,-0 -374.767,167.928 -374.767,374.768l-0,1332.51c-0,206.84 167.927,374.768 374.767,374.768l1332.51,-0c206.84,-0 374.768,-167.928 374.768,-374.768l0,-1332.51Z" style="fill:#fff;"/><g id="Layer_1-2"><path d="M1688.54,392.354l-0,1298.62l-965.375,0l-0,-978.958l461.708,-0l-0,-149.334l-619.75,0l-0,1128.29l-170.333,0l-0,-1298.62l960.458,0l-0,659.167l-170.375,-0l-0,-169.167l-291.333,0l-0,304.25l461.708,0l-0,170.333l-461.708,0l-0,163.709l624.625,-0l-0,-1128.29l170.375,0Z" style="fill-rule:nonzero;"/></g></svg>