<svg version="1.1" id="layer" xmlns="http://www.w3.org/2000/svg" xmlns:xlink="http://www.w3.org/1999/xlink" x="0px" y="0px" style="enable-background:new 0 0 652 652;" xml:space="preserve" viewBox="26.2 280.17 600.03 92.47">
<style type="text/css">
	.st0{fill:#003F98;}
</style><style class="darkreader darkreader--sync" media="screen"/>
<g>
	<path class="st0" d="M356.3,346.4c0-27.2-43.4-26.1-43.4-44.9c0-6.3,6.4-9.2,14.5-9.2c13.2,0,21.7,8.2,21.7,8.2v-16.2   c0,0-7.8-4-20.4-4c-25.6,0-32.9,12.9-32.7,23.6c0,24.1,43.3,26.7,43.3,44.2c0,8.6-8.2,11.4-18.4,11.4c-13.7,0-27.5-10.7-27.5-10.7   l2.8,17.6c0,0,11.1,5.1,24,5.1C343.2,371.7,356.3,362.1,356.3,346.4"/>
	<path class="st0" d="M468.6,356.2c-0.1,5.5,2.3,10.2,6.6,11.7l0,1.4h-25l-0.1-1.4c4.6-1.7,6.8-5.7,6.8-11.8v-60.6   c0-5.9-1.7-9.8-6.6-11.9v-1.4h21.3c0,0,0.7,3.1,2.7,5.6l44,56.7v-48.5c0-7.2-2-10.5-6.1-12.5v-1.4h24.8v1.4   c-4.4,1.9-6.8,5.6-6.6,11.7v77.4c-5.9-0.9-12.6-4.2-18.4-11.3l-43.2-56V356.2z"/>
	<path class="st0" d="M626.2,324.8h-22.3v1.5c3.3,1.5,5.4,4.2,5.4,9.8v22.8c0,0-6.1,2.1-14.4,2.1c-23.4,0-36.4-16.9-36.4-35.5   c0-18.7,13.9-32.6,34.5-32.6c13.9,0,23,8,23,8v-17.3c0,0-10.6-2.4-20.5-2.4c-34.8,0-53.5,18.9-53.7,46.3   c-0.2,23,14.2,44.6,52.7,44.5c15.4,0,31.3-3.6,31.3-3.6s-1-2.7-1-4.6v-32.6C624.6,326.9,626.2,324.8,626.2,324.8"/>
	<path class="st0" d="M414.9,282.2v1.3c2.7,1.2,5.2,3.8,5.1,11.4v48.4c0,8.2-7.5,15.1-17.5,16.1c-12.7,1.2-20.9-5.6-20.9-21.6v-45.6   c0-4.3,1.9-7.4,4.9-8.7v-1.4H361v1.4c3.3,1.4,5.1,5.1,5.1,9.3v47.5c0,20.6,12.5,31.2,32.4,30.8c8-0.1,15.6-3.1,21.5-8.3v6.5H441   v-1.4c-3.8-1.7-5.6-4.6-5.6-11.2v-61.2c0-8.1,1.8-10.1,5.1-12v-1.4H414.9z"/>
	<path class="st0" d="M151.1,331.5v24.1c0,7.8-1.3,10-5,12.3v1.5h25.6V368c-3.2-2.4-5.2-5-5.1-11.6v-25l32-49.2h-25.5v1.4   c5.1,2.5,4.9,7.8,2.5,11.7l-15,22.9l-18.4-30.6c-2.1-3.5-4.4-5.4-9.9-5.4h-16.5c5.3,2.2,9.9,7.2,12.9,12.6L151.1,331.5z"/>
	<path class="st0" d="M90.1,327.7v28.7c0.1,7-1.6,10.1-5.5,11.5v1.5h26.3V368c-2.7-1.4-5.4-3.3-5.4-12l0-60.6c0-7.4,1.6-10,5.4-11.8   l0-1.4H84.5v1.4c4,1.8,5.7,4,5.6,11.2v21.3H47v-21.3c-0.1-7.2,1.6-9.5,5.5-11.2v-1.4H26.2l0,1.4c3.7,1.8,5.4,4.4,5.4,11.8V356   c0,8.7-2.7,10.6-5.4,11.9v1.5h26.2v-1.5c-3.8-1.3-5.5-4.5-5.4-11.5v-28.7H90.1z"/>
	<path class="st0" d="M287.2,325.2c0,27-21.9,46.6-47.7,46.6c-25.7,0-47.3-18.8-47.3-46c0-25.2,21.3-46.2,48.6-45.6   C268,280.1,287.2,301.3,287.2,325.2 M208.8,324.7c0,17.5,12.2,35.6,31.4,35.6c18.6,0,30.5-13.9,30.5-32.6c0-18.4-11.5-36-30.8-36   C220.9,291.7,208.8,305.8,208.8,324.7"/>
</g>
</svg>