<?xml version="1.0" encoding="UTF-8"?><svg id="Layer_2" xmlns="http://www.w3.org/2000/svg" viewBox="0 0 314.35 136.51"><defs><style>.cls-1{fill:#1b1b32;}</style></defs><g id="Layer_1-2"><path class="cls-1" d="m0,131.7l11.54-2.88V5.77L0,2.88V0h50.95c21.79,0,37.49,3.3,47.1,9.9,9.61,6.6,14.42,15.8,14.42,27.59,0,7.95-2.11,14.39-6.34,19.32-4.23,4.94-9.68,8.62-16.34,11.06-7.05,2.69-14.55,4.1-22.49,4.23v.96c4.74.26,8.91.96,12.5,2.12,8.97,2.82,15.06,7.88,18.26,15.19l17.3,38.45,9.61,2.88v2.88h-26.92c-10.51,0-18.2-5.45-23.07-16.34l-19.23-43.26h-12.5v53.83l13.46,2.88v2.88H0v-2.88Zm50.95-61.52c8.97,0,16.02-2.82,21.15-8.46,5.13-5.64,7.69-13.71,7.69-24.22s-2.57-18.58-7.69-24.23c-5.13-5.64-12.18-8.46-21.15-8.46h-7.69v65.37h7.69Z"/><path class="cls-1" d="m127.86,4.81l-10.57-1.92V0h23.07c6.79,0,12.37,1.54,16.73,4.61,4.36,3.08,7.43,6.99,9.23,11.73l29.03,74.02,16.92-49.6-14.23-35.95-10.57-1.92V0h23.07c6.79,0,12.31,1.51,16.53,4.52,4.23,3.01,7.37,6.95,9.42,11.82l29.03,74.02,27.68-81.71-14.42-5.77V0h35.57v2.88l-15.38,5.77-43.26,127.85h-5.77l-34.61-87.86-29.8,87.86h-5.77L127.86,4.81Z"/></g></svg>