<svg viewBox="0 0 829 103" xmlns="http://www.w3.org/2000/svg" xml:space="preserve" style="fill-rule:evenodd;clip-rule:evenodd;stroke-linejoin:round;stroke-miterlimit:2"><path d="m397.85 484.617 8.64-2.16v-92.16l-8.64-2.16v-2.16h38.16c16.32 0 28.08 2.472 35.28 7.416 7.2 4.944 10.8 11.832 10.8 20.664 0 5.952-1.584 10.776-4.752 14.472-3.168 3.696-7.248 6.456-12.24 8.28-5.28 2.016-10.896 3.072-16.848 3.168v.72c3.552.192 6.672.72 9.36 1.584 6.72 2.112 11.28 5.904 13.68 11.376l12.96 28.8 7.2 2.16v2.16h-20.16c-7.872 0-13.632-4.08-17.28-12.24l-14.4-32.4h-9.36v40.32l10.08 2.16v2.16h-42.48v-2.16Zm38.16-46.08c6.72 0 12-2.112 15.84-6.336s5.76-10.272 5.76-18.144c0-7.872-1.92-13.92-5.76-18.144-3.84-4.224-9.12-6.336-15.84-6.336h-5.76v48.96h5.76ZM519.53 488.937c-8.544 0-15.12-1.824-19.728-5.472-4.608-3.648-6.912-8.304-6.912-13.968 0-3.744.816-7.44 2.448-11.088a20.648 20.648 0 0 1 2.592-4.752c3.936-.96 8.208-1.824 12.816-2.592 10.368-1.728 19.536-2.784 27.504-3.168v-4.32c0-10.656-1.296-18-3.888-22.032-2.592-4.032-6.576-6.048-11.952-6.048-2.016 0-3.744.24-5.184.72l-2.016.72v21.6l-1.872.432c-1.536.192-2.832.288-3.888.288-3.264 0-5.88-.984-7.848-2.952s-2.952-4.584-2.952-7.848c0-4.416 2.232-8.16 6.696-11.232 4.464-3.072 11.112-4.608 19.944-4.608 7.488 0 13.944 1.32 19.368 3.96 5.424 2.64 9.552 6.288 12.384 10.944 2.832 4.656 4.248 10.008 4.248 16.056v38.88l8.64 2.16v2.16h-12.96c-5.76 0-10.224-1.776-13.392-5.328-1.344-1.44-2.4-3.264-3.168-5.472a32.204 32.204 0 0 1-4.752 6.48c-4.32 4.32-9.696 6.48-16.128 6.48Zm5.76-5.04c3.552 0 6.768-1.92 9.648-5.76 1.056-1.44 2.16-3.36 3.312-5.76v-20.88c-4.416 0-8.64.24-12.672.72-2.976.384-4.992.624-6.048.72-.48 1.056-.96 2.496-1.44 4.32-.96 3.648-1.44 7.248-1.44 10.8 0 5.376.816 9.36 2.448 11.952 1.632 2.592 3.696 3.888 6.192 3.888ZM601.61 488.937c-5.664 0-10.704-1.464-15.12-4.392-4.416-2.928-7.92-7.248-10.512-12.96-2.592-5.712-3.888-12.648-3.888-20.808 0-12.288 2.856-21.72 8.568-28.296 5.712-6.576 13.416-9.864 23.112-9.864 4.608 0 8.64.96 12.096 2.88 1.44.672 2.928 1.632 4.464 2.88v-28.08l-8.64-2.16v-2.16h18.72c8.64 0 12.96 4.32 12.96 12.96v83.52l8.64 2.16v2.16h-12.96c-5.76 0-10.224-1.776-13.392-5.328-1.344-1.44-2.4-3.264-3.168-5.472a26.22 26.22 0 0 1-4.752 6.48c-4.32 4.32-9.696 6.48-16.128 6.48Zm5.76-5.04c3.552 0 6.768-1.92 9.648-5.76 1.056-1.44 2.16-3.36 3.312-5.76v-49.68a30.926 30.926 0 0 0-3.312-2.88c-2.592-1.92-5.088-2.88-7.488-2.88-4.128 0-7.32 2.4-9.576 7.2-2.256 4.8-3.384 13.68-3.384 26.64 0 12.384 1.032 21 3.096 25.848 2.064 4.848 4.632 7.272 7.704 7.272ZM655.61 484.617l8.64-2.16v-63.36l-8.64-2.16v-2.16h18.72c8.64 0 12.96 4.32 12.96 12.96v54.72l8.64 2.16v2.16h-40.32v-2.16Zm18.72-78.48c-2.88 0-5.28-.96-7.2-2.88s-2.88-4.32-2.88-7.2.96-5.28 2.88-7.2 4.32-2.88 7.2-2.88 5.28.96 7.2 2.88 2.88 4.32 2.88 7.2-.96 5.28-2.88 7.2-4.32 2.88-7.2 2.88ZM724.73 488.937c-8.544 0-15.12-1.824-19.728-5.472-4.608-3.648-6.912-8.304-6.912-13.968 0-3.744.816-7.44 2.448-11.088a20.648 20.648 0 0 1 2.592-4.752c3.936-.96 8.208-1.824 12.816-2.592 10.368-1.728 19.536-2.784 27.504-3.168v-4.32c0-10.656-1.296-18-3.888-22.032-2.592-4.032-6.576-6.048-11.952-6.048-2.016 0-3.744.24-5.184.72l-2.016.72v21.6l-1.872.432c-1.536.192-2.832.288-3.888.288-3.264 0-5.88-.984-7.848-2.952s-2.952-4.584-2.952-7.848c0-4.416 2.232-8.16 6.696-11.232 4.464-3.072 11.112-4.608 19.944-4.608 7.488 0 13.944 1.32 19.368 3.96 5.424 2.64 9.552 6.288 12.384 10.944 2.832 4.656 4.248 10.008 4.248 16.056v38.88l8.64 2.16v2.16h-12.96c-5.76 0-10.224-1.776-13.392-5.328-1.344-1.44-2.4-3.264-3.168-5.472a32.204 32.204 0 0 1-4.752 6.48c-4.32 4.32-9.696 6.48-16.128 6.48Zm5.76-5.04c3.552 0 6.768-1.92 9.648-5.76 1.056-1.44 2.16-3.36 3.312-5.76v-20.88c-4.416 0-8.64.24-12.672.72-2.976.384-4.992.624-6.048.72-.48 1.056-.96 2.496-1.44 4.32-.96 3.648-1.44 7.248-1.44 10.8 0 5.376.816 9.36 2.448 11.952 1.632 2.592 3.696 3.888 6.192 3.888ZM813.866 488.937c-6.336 0-11.832-1.152-16.488-3.456-4.656-2.304-8.232-5.472-10.728-9.504-2.496-4.032-3.744-8.592-3.744-13.68v-43.92h-10.08v-3.6h10.08v-7.2c0-8.64 4.32-12.96 12.96-12.96h10.08v20.16h20.16v3.6h-20.16v43.92c0 8.832.912 14.88 2.736 18.144 1.824 3.264 4.512 4.896 8.064 4.896 3.456 0 6.48-1.68 9.072-5.04 2.592-3.36 3.888-7.92 3.888-13.68h3.6c0 7.104-1.776 12.6-5.328 16.488-3.552 3.888-8.256 5.832-14.112 5.832ZM863.258 488.937c-8.544 0-15.12-1.824-19.728-5.472-4.608-3.648-6.912-8.304-6.912-13.968 0-3.744.816-7.44 2.448-11.088a20.648 20.648 0 0 1 2.592-4.752c3.936-.96 8.208-1.824 12.816-2.592 10.368-1.728 19.536-2.784 27.504-3.168v-4.32c0-10.656-1.296-18-3.888-22.032-2.592-4.032-6.576-6.048-11.952-6.048-2.016 0-3.744.24-5.184.72l-2.016.72v21.6l-1.872.432c-1.536.192-2.832.288-3.888.288-3.264 0-5.88-.984-7.848-2.952s-2.952-4.584-2.952-7.848c0-4.416 2.232-8.16 6.696-11.232 4.464-3.072 11.112-4.608 19.944-4.608 7.488 0 13.944 1.32 19.368 3.96 5.424 2.64 9.552 6.288 12.384 10.944 2.832 4.656 4.248 10.008 4.248 16.056v38.88l8.64 2.16v2.16h-12.96c-5.76 0-10.224-1.776-13.392-5.328-1.344-1.44-2.4-3.264-3.168-5.472a32.204 32.204 0 0 1-4.752 6.48c-4.32 4.32-9.696 6.48-16.128 6.48Zm5.76-5.04c3.552 0 6.768-1.92 9.648-5.76 1.056-1.44 2.16-3.36 3.312-5.76v-20.88c-4.416 0-8.64.24-12.672.72-2.976.384-4.992.624-6.048.72-.48 1.056-.96 2.496-1.44 4.32-.96 3.648-1.44 7.248-1.44 10.8 0 5.376.816 9.36 2.448 11.952 1.632 2.592 3.696 3.888 6.192 3.888ZM950.378 389.577l-7.92-1.44v-2.16h17.28c5.088 0 9.264 1.152 12.528 3.456 3.264 2.304 5.568 5.232 6.912 8.784l21.742 55.44 12.67-37.152-10.65-26.928-7.922-1.44v-2.16h17.282c5.09 0 9.21 1.128 12.38 3.384 3.17 2.256 5.52 5.208 7.06 8.856l21.74 55.44 20.74-61.2-10.8-4.32v-2.16h26.64v2.16l-11.52 4.32-32.4 95.76h-4.32l-25.92-65.808-22.322 65.808h-4.32l-38.88-98.64ZM1113.67 488.937c-12.28 0-21.84-3.384-28.65-10.152-6.82-6.768-10.23-16.104-10.23-28.008 0-7.776 1.49-14.544 4.47-20.304 2.97-5.76 7.13-10.176 12.45-13.248 5.33-3.072 11.45-4.608 18.36-4.608 6.92 0 12.99 1.296 18.22 3.888 5.23 2.592 9.26 6.072 12.1 10.44 2.83 4.368 4.24 9.192 4.24 14.472 0 2.4-.24 4.464-.72 6.192l-.72 2.448c-4.12.864-8.59 1.584-13.39 2.16a215.537 215.537 0 0 1-30.53 2.16c0 11.136 1.54 19.08 4.61 23.832 3.07 4.752 7.3 7.128 12.67 7.128 3.75 0 7.23-.888 10.44-2.664 3.22-1.776 5.76-4.128 7.64-7.056 1.87-2.928 2.8-5.928 2.8-9h3.6c0 3.84-1.15 7.488-3.45 10.944-2.31 3.456-5.52 6.216-9.65 8.28-4.13 2.064-8.88 3.096-14.26 3.096Zm-14.4-38.16c6.15 0 11.14-.24 14.98-.72 1.63-.096 3.36-.336 5.18-.72.1-.48.34-1.536.72-3.168.48-2.4.72-4.944.72-7.632 0-7.968-1.05-13.8-3.16-17.496-2.12-3.696-4.66-5.544-7.64-5.544-7.2 0-10.8 11.76-10.8 35.28ZM1197.19 488.937c-6.43 0-11.8-2.16-16.12-6.48-1.83-1.92-3.41-4.08-4.76-6.48-.67 2.112-1.82 4.032-3.45 5.76-3.65 3.84-8.98 5.76-15.99 5.76h-1.44v-97.2l-8.64-2.16v-2.16h18.72c8.64 0 12.96 4.32 12.96 12.96v19.44c1.54-1.248 3.03-2.208 4.47-2.88 3.45-1.92 7.49-2.88 12.09-2.88 9.7 0 17.4 3.288 23.12 9.864 5.71 6.576 8.56 16.008 8.56 28.296 0 8.16-1.29 15.096-3.88 20.808-2.6 5.712-6.1 10.032-10.52 12.96-4.41 2.928-9.45 4.392-15.12 4.392Zm-5.76-5.04c3.08 0 5.64-2.424 7.71-7.272 2.06-4.848 3.09-13.464 3.09-25.848 0-12.96-1.12-21.84-3.38-26.64-2.26-4.8-5.45-7.2-9.58-7.2-2.49 0-5.04.96-7.63 2.88-.77.576-1.82 1.536-3.17 2.88v49.68c.87 2.208 1.92 4.128 3.17 5.76 2.88 3.84 6.15 5.76 9.79 5.76Z" style="fill:#1b1b32;fill-rule:nonzero" transform="translate(-397.85 -385.977)"/></svg>